<svg id="Layer_1" data-name="Layer 1" xmlns="http://www.w3.org/2000/svg" width="465.13" height="108.39" viewBox="0 0 465.13 108.39">
  <title>0</title>
  <g>
    <path d="M151.22,77.24a11.91,11.91,0,0,1-4.65,10q-4.65,3.59-12.62,3.59-8.63,0-13.28-2.22V83.15a34.86,34.86,0,0,0,6.51,2,34.21,34.21,0,0,0,7,.73q5.64,0,8.5-2.14a7,7,0,0,0,2.86-6,7.66,7.66,0,0,0-1-4.13,9.42,9.42,0,0,0-3.39-3,47.47,47.47,0,0,0-7.22-3.09q-6.77-2.42-9.68-5.74a12.68,12.68,0,0,1-2.91-8.67,10.78,10.78,0,0,1,4.22-8.93q4.22-3.32,11.16-3.32A32.88,32.88,0,0,1,150,43.58l-1.76,4.91A30.1,30.1,0,0,0,136.55,46a11.31,11.31,0,0,0-7,1.93A6.35,6.35,0,0,0,127,53.24a8.19,8.19,0,0,0,.93,4.13,8.74,8.74,0,0,0,3.14,3,38.92,38.92,0,0,0,6.76,3q7.64,2.72,10.51,5.84A11.49,11.49,0,0,1,151.22,77.24Z" fill="#173647"/>
    <path d="M190.12,71.93q0,8.9-4.48,13.9t-12.38,5a16.4,16.4,0,0,1-8.67-2.29A15.12,15.12,0,0,1,158.74,82a22.91,22.91,0,0,1-2.06-10q0-8.9,4.45-13.86t12.35-5q7.64,0,12.14,5.08T190.12,71.93Zm-27.72,0q0,7,2.79,10.63t8.2,3.65q5.41,0,8.22-3.64t2.81-10.64q0-6.94-2.81-10.54t-8.28-3.6q-5.41,0-8.17,3.55T162.39,71.93Z" fill="#173647"/>
    <path d="M220.24,90.16L219.14,85h-0.27a15.31,15.31,0,0,1-5.43,4.63,16.56,16.56,0,0,1-6.76,1.21q-5.41,0-8.48-2.79t-3.07-7.94q0-11,17.63-11.55l6.18-.2V66.09q0-4.28-1.84-6.33t-5.89-2a24,24,0,0,0-10.29,2.79l-1.69-4.22A25.92,25.92,0,0,1,205.11,54a25.55,25.55,0,0,1,6.42-.83q6.51,0,9.65,2.89t3.14,9.26V90.16h-4.08Zm-12.45-3.88q5.15,0,8.08-2.82t2.94-7.9V72.26l-5.51.23q-6.57.23-9.48,2a6.16,6.16,0,0,0-2.91,5.63,5.68,5.68,0,0,0,1.81,4.55A7.51,7.51,0,0,0,207.78,86.28Z" fill="#173647"/>
    <path d="M250.21,90.82a15.75,15.75,0,0,1-6.49-1.31,12.2,12.2,0,0,1-4.93-4h-0.4a48.82,48.82,0,0,1,.4,6v15h-5.51V53.77h4.48l0.76,5h0.27a12.8,12.8,0,0,1,4.95-4.32,15,15,0,0,1,6.47-1.33q7.24,0,11.17,4.95t3.93,13.88q0,9-4,13.93T250.21,90.82Zm-0.8-33q-5.58,0-8.07,3.09t-2.56,9.83v1.23q0,7.67,2.56,11t8.2,3.3a8.53,8.53,0,0,0,7.39-3.82q2.67-3.82,2.67-10.53t-2.67-10.44A8.79,8.79,0,0,0,249.41,57.79Z" fill="#173647"/>
    <path d="M310.11,41.62V73q0,8.3-5,13t-13.78,4.75q-8.77,0-13.56-4.78T273,72.89V41.62h5.64V73.29q0,6.08,3.32,9.33t9.76,3.25q6.14,0,9.46-3.27t3.32-9.38V41.62h5.64Z" fill="#173647"/>
    <path d="M320.62,90.16V41.62h5.64V90.16h-5.64Z" fill="#173647"/>
    <path d="M381.56,55.76q0,7.37-5,11.34t-14.39,4h-5.71V90.16h-5.64V41.62h12.58Q381.56,41.62,381.56,55.76ZM356.43,66.22h5.08q7.5,0,10.86-2.42T375.72,56q0-4.81-3.15-7.17t-9.83-2.36h-6.31V66.22Z" fill="#173647"/>
    <path d="M404.72,53.11a21.57,21.57,0,0,1,4.35.4l-0.76,5.11a18.78,18.78,0,0,0-4-.5,9.7,9.7,0,0,0-7.55,3.59,13.08,13.08,0,0,0-3.14,8.93V90.16h-5.51V53.77h4.55l0.63,6.74h0.27A16,16,0,0,1,398.45,55,11,11,0,0,1,404.72,53.11Z" fill="#173647"/>
    <path d="M444.65,71.93q0,8.9-4.48,13.9t-12.38,5a16.4,16.4,0,0,1-8.67-2.29A15.12,15.12,0,0,1,413.27,82a22.9,22.9,0,0,1-2.06-10q0-8.9,4.45-13.86t12.35-5q7.64,0,12.14,5.08T444.65,71.93Zm-27.72,0q0,7,2.79,10.63t8.2,3.65q5.41,0,8.22-3.64t2.81-10.64q0-6.94-2.81-10.54t-8.28-3.6q-5.41,0-8.17,3.55T416.93,71.93Z" fill="#173647"/>
  </g>
  <g>
    <g>
      <rect x="2.8" y="2.03" width="90" height="91" fill="#fcdc00"/>
      <path d="M89.8,5V90H4.8V5h85m5-5h-95V95h95V0h0Z" fill="#173647"/>
    </g>
    <path d="M55.59,82L49.83,78H45.45l-5.81,3.9L29,77.44l-1.24-7-3.05-3.12-6.93-1.24L13.43,55.43l4-5.78,0-4.38-4-5.8,4.43-10.6,6.94-1.24L28,24.55l1.28-6.94,10.64-4.35,5.77,4,4.35,0,5.8-4,10.64,4.43,1.2,6.94,3.08,3.11,6.94,1.27,4.25,10.61-4.13,5.8v4.35l4.1,5.84L77.51,66.28l-6.92,1.2-3.1,3.08-1.27,7ZM43.9,73H51.4l4.82,3.27L61.81,74l1.06-5.82,5.34-5.31,5.79-1,2.23-5.57L72.8,51.38V43.92l3.47-4.85L74,33.5l-5.77-1.06L63,27.1l-1-5.79L56.4,19l-4.85,3.34-7.48,0-4.81-3.37L33.67,21.2,32.6,27l-5.33,5.29-5.79,1-2.33,5.57,3.34,4.85,0,7.51-3.37,4.81,2.3,5.59,5.8,1L32.45,68l1,5.82,5.57,2.43Z" fill="#173647"/>
    <path d="M59.69,34.69l-3.21,3.83a13.65,13.65,0,0,1-8.76,24.12c-0.23,0-.45,0-0.67,0l9.7-15.29-11-2.43L54,30.46,49.61,28,38.13,48.3l10.59,2.35L41.94,61.34a13.63,13.63,0,0,1-3.86-22l-3.54-3.54A18.65,18.65,0,1,0,59.69,34.69Z" fill="#173647"/>
  </g>
  <g>
    <path d="M455,90.76h-0.7V87.08H453v-0.6h3.22v0.6H455v3.68Z" fill="#173647"/>
    <path d="M459.07,90.76l-1.24-3.58h0q0,0.8,0,1.49v2.08h-0.64V86.48h1l1.19,3.41h0l1.22-3.41h1v4.28H461V88.64q0-.32,0-0.83t0-.62h0l-1.29,3.57h-0.62Z" fill="#173647"/>
  </g>
  <g>
    <path d="M135.19,8.43s-4.4-.5-6.21-0.5c-2.64,0-4,.94-4,2.79,0,2,1.13,2.48,4.8,3.48,4.52,1.26,6.15,2.45,6.15,6.12,0,4.71-2.95,6.75-7.19,6.75a45.74,45.74,0,0,1-7-.85l0.35-2.79s4.24,0.57,6.47.57c2.67,0,3.89-1.19,3.89-3.45,0-1.82-1-2.45-4.27-3.23-4.65-1.19-6.65-2.61-6.65-6.34,0-4.33,2.86-6.12,7.16-6.12a47.65,47.65,0,0,1,6.81.75Z" fill="#173647"/>
    <path d="M144.3,5.23h6.06L155.16,22,160,5.23h6.09v21.5h-3.52V8.14h-0.18L157,25.85h-3.64L148,8.14h-0.19V26.73H144.3V5.23Z" fill="#173647"/>
    <path d="M220,5.23h15.69V8.33h-6.06V26.73h-3.52V8.33H220V5.23Z" fill="#173647"/>
    <path d="M250.87,5.23c4.27,0,6.56,1.6,6.56,5.59,0,2.61-.82,3.89-2.54,4.83,1.85,0.72,3.08,2,3.08,5,0,4.4-2.67,6.09-6.84,6.09h-8.41V5.23h8.16Zm-4.68,3v6.15h4.61c2.13,0,3.08-1.07,3.08-3.17s-1.07-3-3.2-3H246.2Zm0,9.1v6.37h4.74c2.17,0,3.45-.69,3.45-3.27s-1.82-3.11-3.52-3.11H246.2Z" fill="#173647"/>
    <path d="M266.6,5.23h13.56v3H270.09v6.09h8.19v3h-8.19v6.31h10.08v3.08H266.6V5.23Z" fill="#173647"/>
    <path d="M292.66,5.23h6.94l5.34,21.5h-3.52l-1.59-6.31h-7.4l-1.59,6.31h-3.48Zm0.46,12.12h6l-2.23-9.2h-1.57Z" fill="#173647"/>
    <path d="M316.17,20.36v6.37h-3.48V5.23h8.16c4.74,0,7.28,2.72,7.28,7.49,0,3-1.22,5.79-3.52,6.86l3.55,7.16h-3.83l-3.11-6.37h-5.05Zm4.68-12.12h-4.68v9.1h4.74c2.64,0,3.64-2.37,3.64-4.6C324.55,10.29,323.36,8.24,320.85,8.24Z" fill="#173647"/>
    <path d="M179,5.23h6.94l5.34,21.5h-3.52l-1.59-6.31h-7.4l-1.59,6.31h-3.48Zm0.46,12.12h6l-2.23-9.2h-1.57Z" fill="#173647"/>
    <path d="M202.47,20.36v6.37H199V5.23h8.16c4.74,0,7.28,2.72,7.28,7.49,0,3-1.22,5.79-3.52,6.86l3.55,7.16h-3.83l-3.11-6.37h-5.05Zm4.68-12.12h-4.68v9.1h4.74c2.64,0,3.64-2.37,3.64-4.6C210.85,10.29,209.66,8.24,207.15,8.24Z" fill="#173647"/>
  </g>
</svg>
